<?xml version="1.0" encoding="UTF-8"?>
<svg xmlns="http://www.w3.org/2000/svg" xmlns:xlink="http://www.w3.org/1999/xlink" width="481.199pt" height="66.729pt" viewBox="0 0 481.199 66.729">
<defs>
<clipPath id="clip-0">
<path clip-rule="nonzero" d="M 266 61 L 466 61 L 466 66.730469 L 266 66.730469 Z M 266 61 "/>
</clipPath>
<clipPath id="clip-1">
<path clip-rule="nonzero" d="M 419 28 L 481.199219 28 L 481.199219 39 L 419 39 Z M 419 28 "/>
</clipPath>
</defs>
<path fill-rule="nonzero" fill="rgb(39.99939%, 100%, 59.999084%)" fill-opacity="1" stroke-width="0.3985" stroke-linecap="butt" stroke-linejoin="miter" stroke="rgb(39.99939%, 100%, 59.999084%)" stroke-opacity="1" stroke-miterlimit="10" d="M 61.228094 7.654781 L 61.228094 22.959469 L 107.149969 22.959469 L 107.149969 7.654781 Z M 61.228094 7.654781 " transform="matrix(1, 0, 0, -1, 251.393, 63.979)"/>
<path fill-rule="nonzero" fill="rgb(39.99939%, 100%, 59.999084%)" fill-opacity="1" stroke-width="0.3985" stroke-linecap="butt" stroke-linejoin="miter" stroke="rgb(39.99939%, 100%, 59.999084%)" stroke-opacity="1" stroke-miterlimit="10" d="M 61.228094 22.959469 L 61.228094 38.268062 L 107.149969 38.268062 L 107.149969 22.959469 Z M 61.228094 22.959469 " transform="matrix(1, 0, 0, -1, 251.393, 63.979)"/>
<path fill-rule="nonzero" fill="rgb(39.99939%, 100%, 59.999084%)" fill-opacity="1" stroke-width="0.3985" stroke-linecap="butt" stroke-linejoin="miter" stroke="rgb(39.99939%, 100%, 59.999084%)" stroke-opacity="1" stroke-miterlimit="10" d="M 61.228094 38.268062 L 61.228094 53.576656 L 107.149969 53.576656 L 107.149969 38.268062 Z M 61.228094 38.268062 " transform="matrix(1, 0, 0, -1, 251.393, 63.979)"/>
<g clip-path="url(#clip-0)">
<path fill-rule="nonzero" fill="rgb(100%, 50%, 50%)" fill-opacity="1" stroke-width="0.3985" stroke-linecap="butt" stroke-linejoin="miter" stroke="rgb(100%, 50%, 50%)" stroke-opacity="1" stroke-miterlimit="10" d="M 15.306219 -2.55225 L 15.306219 2.549312 L 214.302312 2.549312 L 214.302312 -2.55225 Z M 15.306219 -2.55225 " transform="matrix(1, 0, 0, -1, 251.393, 63.979)"/>
</g>
<path fill-rule="nonzero" fill="rgb(100%, 50%, 50%)" fill-opacity="1" stroke-width="0.3985" stroke-linecap="butt" stroke-linejoin="miter" stroke="rgb(100%, 50%, 50%)" stroke-opacity="1" stroke-miterlimit="10" d="M 15.306219 28.064937 L 15.306219 33.1665 L 168.380437 33.1665 L 168.380437 28.064937 Z M 15.306219 28.064937 " transform="matrix(1, 0, 0, -1, 251.393, 63.979)"/>
<path fill-rule="nonzero" fill="rgb(100%, 50%, 50%)" fill-opacity="1" stroke-width="0.3985" stroke-linecap="butt" stroke-linejoin="miter" stroke="rgb(100%, 50%, 50%)" stroke-opacity="1" stroke-miterlimit="10" d="M 168.380437 25.51025 L 168.380437 35.717281 L 214.302312 35.717281 L 214.302312 25.51025 Z M 168.380437 25.51025 " transform="matrix(1, 0, 0, -1, 251.393, 63.979)"/>
<path fill-rule="nonzero" fill="rgb(100%, 50%, 50%)" fill-opacity="1" stroke-width="0.3985" stroke-linecap="butt" stroke-linejoin="miter" stroke="rgb(100%, 50%, 50%)" stroke-opacity="1" stroke-miterlimit="10" d="M 15.306219 58.678219 L 15.306219 63.779781 L 214.302312 63.779781 L 214.302312 58.678219 Z M 15.306219 58.678219 " transform="matrix(1, 0, 0, -1, 251.393, 63.979)"/>
<path fill-rule="nonzero" fill="rgb(35.998535%, 35.998535%, 100%)" fill-opacity="1" stroke-width="0.3985" stroke-linecap="butt" stroke-linejoin="miter" stroke="rgb(35.998535%, 35.998535%, 100%)" stroke-opacity="1" stroke-miterlimit="10" d="M 61.228094 10.205562 L 61.228094 20.408687 L 122.458562 20.408687 L 122.458562 10.205562 Z M 61.228094 10.205562 " transform="matrix(1, 0, 0, -1, 251.393, 63.979)"/>
<g clip-path="url(#clip-1)">
<path fill-rule="nonzero" fill="rgb(35.998535%, 35.998535%, 100%)" fill-opacity="1" stroke-width="0.3985" stroke-linecap="butt" stroke-linejoin="miter" stroke="rgb(35.998535%, 35.998535%, 100%)" stroke-opacity="1" stroke-miterlimit="10" d="M 168.380437 25.51025 L 168.380437 35.717281 L 229.610906 35.717281 L 229.610906 25.51025 Z M 168.380437 25.51025 " transform="matrix(1, 0, 0, -1, 251.393, 63.979)"/>
</g>
<path fill-rule="nonzero" fill="rgb(35.998535%, 35.998535%, 100%)" fill-opacity="1" stroke-width="0.3985" stroke-linecap="butt" stroke-linejoin="miter" stroke="rgb(35.998535%, 35.998535%, 100%)" stroke-opacity="1" stroke-miterlimit="10" d="M 61.228094 40.818844 L 61.228094 51.025875 L 122.458562 51.025875 L 122.458562 40.818844 Z M 61.228094 40.818844 " transform="matrix(1, 0, 0, -1, 251.393, 63.979)"/>
<path fill-rule="nonzero" fill="rgb(90.99884%, 90.99884%, 0%)" fill-opacity="1" stroke-width="0.3985" stroke-linecap="butt" stroke-linejoin="miter" stroke="rgb(90.99884%, 90.99884%, 0%)" stroke-opacity="1" stroke-miterlimit="10" d="M 88.442937 11.904781 L 88.442937 18.709469 L 95.243719 18.709469 L 95.243719 11.904781 Z M 88.442937 11.904781 " transform="matrix(1, 0, 0, -1, 251.393, 63.979)"/>
<path fill-rule="nonzero" fill="rgb(90.99884%, 90.99884%, 0%)" fill-opacity="1" stroke-width="0.3985" stroke-linecap="butt" stroke-linejoin="miter" stroke="rgb(90.99884%, 90.99884%, 0%)" stroke-opacity="1" stroke-miterlimit="10" d="M 71.435125 11.904781 L 71.435125 18.709469 L 78.235906 18.709469 L 78.235906 11.904781 Z M 71.435125 11.904781 " transform="matrix(1, 0, 0, -1, 251.393, 63.979)"/>
<path fill-rule="nonzero" fill="rgb(90.99884%, 90.99884%, 0%)" fill-opacity="1" stroke-width="0.3985" stroke-linecap="butt" stroke-linejoin="miter" stroke="rgb(90.99884%, 90.99884%, 0%)" stroke-opacity="1" stroke-miterlimit="10" d="M 88.442937 42.521969 L 88.442937 49.32275 L 95.243719 49.32275 L 95.243719 42.521969 Z M 88.442937 42.521969 " transform="matrix(1, 0, 0, -1, 251.393, 63.979)"/>
<path fill-rule="nonzero" fill="rgb(90.99884%, 90.99884%, 0%)" fill-opacity="1" stroke-width="0.3985" stroke-linecap="butt" stroke-linejoin="miter" stroke="rgb(90.99884%, 90.99884%, 0%)" stroke-opacity="1" stroke-miterlimit="10" d="M 71.435125 42.521969 L 71.435125 49.32275 L 78.235906 49.32275 L 78.235906 42.521969 Z M 71.435125 42.521969 " transform="matrix(1, 0, 0, -1, 251.393, 63.979)"/>
<path fill-rule="nonzero" fill="rgb(90.99884%, 90.99884%, 0%)" fill-opacity="1" stroke-width="0.3985" stroke-linecap="butt" stroke-linejoin="miter" stroke="rgb(90.99884%, 90.99884%, 0%)" stroke-opacity="1" stroke-miterlimit="10" d="M 172.630437 27.213375 L 172.630437 34.014156 L 179.435125 34.014156 L 179.435125 27.213375 Z M 172.630437 27.213375 " transform="matrix(1, 0, 0, -1, 251.393, 63.979)"/>
<path fill-rule="nonzero" fill="rgb(90.99884%, 90.99884%, 0%)" fill-opacity="1" stroke-width="0.3985" stroke-linecap="butt" stroke-linejoin="miter" stroke="rgb(90.99884%, 90.99884%, 0%)" stroke-opacity="1" stroke-miterlimit="10" d="M 203.247625 27.213375 L 203.247625 34.014156 L 210.048406 34.014156 L 210.048406 27.213375 Z M 203.247625 27.213375 " transform="matrix(1, 0, 0, -1, 251.393, 63.979)"/>
</svg>
