<?xml version="1.0" encoding="UTF-8"?>
<svg xmlns="http://www.w3.org/2000/svg" xmlns:xlink="http://www.w3.org/1999/xlink" width="284.261pt" height="116.457pt" viewBox="0 0 284.261 116.457">
<defs>
<g>
<g id="glyph-0-0">
<path d="M 3.609375 -3.421875 C 3.265625 -3.421875 3.078125 -3.15625 3.078125 -2.9375 C 3.078125 -2.671875 3.3125 -2.609375 3.421875 -2.609375 C 3.609375 -2.609375 3.921875 -2.765625 3.921875 -3.1875 C 3.921875 -3.65625 3.453125 -3.96875 2.828125 -3.96875 C 1.609375 -3.96875 0.390625 -2.71875 0.390625 -1.4375 C 0.390625 -0.53125 0.984375 0.09375 1.890625 0.09375 C 3.234375 0.09375 3.984375 -0.828125 3.984375 -0.953125 C 3.984375 -1 3.921875 -1.078125 3.859375 -1.078125 C 3.828125 -1.078125 3.8125 -1.0625 3.734375 -0.96875 C 3.1875 -0.3125 2.375 -0.125 1.90625 -0.125 C 1.40625 -0.125 1.078125 -0.453125 1.078125 -1.109375 C 1.078125 -1.484375 1.25 -2.375 1.609375 -2.953125 C 1.8125 -3.28125 2.28125 -3.734375 2.84375 -3.734375 C 3.015625 -3.734375 3.390625 -3.703125 3.609375 -3.421875 Z M 3.609375 -3.421875 "/>
</g>
<g id="glyph-1-0">
<path d="M 6.265625 -5.671875 C 6.75 -6.453125 7.171875 -6.484375 7.53125 -6.5 C 7.65625 -6.515625 7.671875 -6.671875 7.671875 -6.6875 C 7.671875 -6.765625 7.609375 -6.8125 7.53125 -6.8125 C 7.28125 -6.8125 6.984375 -6.78125 6.71875 -6.78125 C 6.390625 -6.78125 6.046875 -6.8125 5.734375 -6.8125 C 5.671875 -6.8125 5.546875 -6.8125 5.546875 -6.625 C 5.546875 -6.515625 5.625 -6.5 5.703125 -6.5 C 5.96875 -6.484375 6.15625 -6.375 6.15625 -6.171875 C 6.15625 -6.015625 6.015625 -5.796875 6.015625 -5.796875 L 2.953125 -0.921875 L 2.265625 -6.203125 C 2.265625 -6.375 2.5 -6.5 2.953125 -6.5 C 3.09375 -6.5 3.203125 -6.5 3.203125 -6.703125 C 3.203125 -6.78125 3.125 -6.8125 3.078125 -6.8125 C 2.671875 -6.8125 2.25 -6.78125 1.828125 -6.78125 C 1.65625 -6.78125 1.46875 -6.78125 1.28125 -6.78125 C 1.109375 -6.78125 0.921875 -6.8125 0.75 -6.8125 C 0.671875 -6.8125 0.5625 -6.8125 0.5625 -6.625 C 0.5625 -6.5 0.640625 -6.5 0.8125 -6.5 C 1.359375 -6.5 1.375 -6.40625 1.40625 -6.15625 L 2.1875 -0.015625 C 2.21875 0.1875 2.265625 0.21875 2.390625 0.21875 C 2.546875 0.21875 2.59375 0.171875 2.671875 0.046875 Z M 6.265625 -5.671875 "/>
</g>
<g id="glyph-2-0">
<path d="M 1.3125 -0.546875 C 1.265625 -0.3125 1.25 -0.25 0.703125 -0.25 C 0.578125 -0.25 0.5 -0.25 0.5 -0.09375 C 0.5 0 0.578125 0 0.703125 0 L 3.1875 0 C 4.734375 0 6.21875 -1.421875 6.21875 -2.9375 C 6.21875 -3.953125 5.515625 -4.765625 4.390625 -4.765625 L 1.84375 -4.765625 C 1.703125 -4.765625 1.625 -4.765625 1.625 -4.609375 C 1.625 -4.515625 1.703125 -4.515625 1.859375 -4.515625 C 1.96875 -4.515625 2 -4.515625 2.125 -4.5 C 2.265625 -4.484375 2.265625 -4.46875 2.265625 -4.390625 C 2.265625 -4.390625 2.265625 -4.34375 2.25 -4.25 Z M 2.875 -4.265625 C 2.9375 -4.484375 2.9375 -4.515625 3.234375 -4.515625 L 4.125 -4.515625 C 4.90625 -4.515625 5.5625 -4.125 5.5625 -3.171875 C 5.5625 -3.015625 5.484375 -1.8125 4.796875 -1.015625 C 4.515625 -0.703125 3.921875 -0.25 3.0625 -0.25 L 2.125 -0.25 C 1.90625 -0.25 1.890625 -0.265625 1.890625 -0.328125 C 1.890625 -0.328125 1.890625 -0.359375 1.921875 -0.46875 Z M 2.875 -4.265625 "/>
</g>
</g>
<clipPath id="clip-0">
<path clip-rule="nonzero" d="M 175 93 L 202 93 L 202 116.457031 L 175 116.457031 Z M 175 93 "/>
</clipPath>
<clipPath id="clip-1">
<path clip-rule="nonzero" d="M 218 112 L 284.261719 112 L 284.261719 114 L 218 114 Z M 218 112 "/>
</clipPath>
</defs>
<path fill="none" stroke-width="0.79701" stroke-linecap="butt" stroke-linejoin="miter" stroke="rgb(0%, 0%, 0%)" stroke-opacity="1" stroke-miterlimit="10" d="M -45.357 45.35475 L -45.357 56.694594 " transform="matrix(1, 0, 0, -1, 91.107, 113.136)"/>
<path fill="none" stroke-width="0.79701" stroke-linecap="butt" stroke-linejoin="miter" stroke="rgb(0%, 0%, 0%)" stroke-opacity="1" stroke-miterlimit="10" d="M -48.189031 47.339125 L -48.189031 54.710219 " transform="matrix(1, 0, 0, -1, 91.107, 113.136)"/>
<path fill="none" stroke-width="0.79701" stroke-linecap="butt" stroke-linejoin="miter" stroke="rgb(0%, 0%, 0%)" stroke-opacity="1" stroke-miterlimit="10" d="M -51.024969 49.3235 L -51.024969 52.725844 " transform="matrix(1, 0, 0, -1, 91.107, 113.136)"/>
<path fill="none" stroke-width="0.79701" stroke-linecap="butt" stroke-linejoin="miter" stroke="rgb(0%, 0%, 0%)" stroke-opacity="1" stroke-miterlimit="10" d="M -45.357 51.022719 L -39.685125 51.022719 " transform="matrix(1, 0, 0, -1, 91.107, 113.136)"/>
<path fill="none" stroke-width="0.79701" stroke-linecap="butt" stroke-linejoin="miter" stroke="rgb(0%, 0%, 0%)" stroke-opacity="1" stroke-miterlimit="10" d="M -39.685125 51.022719 L -35.435125 51.022719 " transform="matrix(1, 0, 0, -1, 91.107, 113.136)"/>
<path fill-rule="nonzero" fill="rgb(0%, 0%, 0%)" fill-opacity="1" d="M 57.230469 62.113281 C 57.230469 61.25 56.535156 60.554688 55.671875 60.554688 C 54.8125 60.554688 54.113281 61.25 54.113281 62.113281 C 54.113281 62.972656 54.8125 63.671875 55.671875 63.671875 C 56.535156 63.671875 57.230469 62.972656 57.230469 62.113281 Z M 57.230469 62.113281 "/>
<path fill="none" stroke-width="0.79701" stroke-linecap="butt" stroke-linejoin="miter" stroke="rgb(0%, 0%, 0%)" stroke-opacity="1" stroke-miterlimit="10" d="M -35.435125 51.022719 L -14.739812 64.632094 " transform="matrix(1, 0, 0, -1, 91.107, 113.136)"/>
<path fill-rule="nonzero" fill="rgb(0%, 0%, 0%)" fill-opacity="1" d="M 77.074219 62.113281 C 77.074219 61.25 76.378906 60.554688 75.515625 60.554688 C 74.65625 60.554688 73.957031 61.25 73.957031 62.113281 C 73.957031 62.972656 74.65625 63.671875 75.515625 63.671875 C 76.378906 63.671875 77.074219 62.972656 77.074219 62.113281 Z M 77.074219 62.113281 "/>
<path fill="none" stroke-width="0.79701" stroke-linecap="butt" stroke-linejoin="miter" stroke="rgb(0%, 0%, 0%)" stroke-opacity="1" stroke-miterlimit="10" d="M -15.591375 51.022719 L -11.337469 51.022719 " transform="matrix(1, 0, 0, -1, 91.107, 113.136)"/>
<path fill="none" stroke-width="0.379" stroke-linecap="butt" stroke-linejoin="miter" stroke="rgb(0%, 0%, 0%)" stroke-opacity="1" stroke-miterlimit="10" d="M 0.0005625 0.00021875 L 3.988844 0.00021875 " transform="matrix(1, 0, 0, -1, 63.601, 69.801)"/>
<g fill="rgb(0%, 0%, 0%)" fill-opacity="1">
<use xlink:href="#glyph-0-0" x="63.601" y="74.987"/>
</g>
<path fill="none" stroke-width="0.79701" stroke-linecap="butt" stroke-linejoin="miter" stroke="rgb(0%, 0%, 0%)" stroke-opacity="1" stroke-miterlimit="10" d="M -11.337469 51.022719 L -0.00153125 51.022719 " transform="matrix(1, 0, 0, -1, 91.107, 113.136)"/>
<path fill-rule="nonzero" fill="rgb(0%, 0%, 0%)" fill-opacity="1" d="M 87.421875 62.113281 C 87.421875 61.015625 86.535156 60.128906 85.4375 60.128906 C 84.339844 60.128906 83.453125 61.015625 83.453125 62.113281 C 83.453125 63.207031 84.339844 64.097656 85.4375 64.097656 C 86.535156 64.097656 87.421875 63.207031 87.421875 62.113281 Z M 87.421875 62.113281 "/>
<path fill="none" stroke-width="0.79701" stroke-linecap="butt" stroke-linejoin="miter" stroke="rgb(0%, 0%, 0%)" stroke-opacity="1" stroke-miterlimit="10" d="M -5.6695 45.35475 L -5.6695 41.10475 " transform="matrix(1, 0, 0, -1, 91.107, 113.136)"/>
<path fill-rule="nonzero" fill="rgb(0%, 0%, 0%)" fill-opacity="1" d="M 86.996094 72.03125 C 86.996094 71.171875 86.296875 70.472656 85.4375 70.472656 C 84.578125 70.472656 83.878906 71.171875 83.878906 72.03125 C 83.878906 72.894531 84.578125 73.589844 85.4375 73.589844 C 86.296875 73.589844 86.996094 72.894531 86.996094 72.03125 Z M 86.996094 72.03125 "/>
<path fill="none" stroke-width="0.79701" stroke-linecap="butt" stroke-linejoin="miter" stroke="rgb(0%, 0%, 0%)" stroke-opacity="1" stroke-miterlimit="10" d="M -5.6695 41.10475 L 7.935969 20.409438 " transform="matrix(1, 0, 0, -1, 91.107, 113.136)"/>
<path fill-rule="nonzero" fill="rgb(0%, 0%, 0%)" fill-opacity="1" d="M 86.996094 91.875 C 86.996094 91.015625 86.296875 90.316406 85.4375 90.316406 C 84.578125 90.316406 83.878906 91.015625 83.878906 91.875 C 83.878906 92.738281 84.578125 93.433594 85.4375 93.433594 C 86.296875 93.433594 86.996094 92.738281 86.996094 91.875 Z M 86.996094 91.875 "/>
<path fill="none" stroke-width="0.79701" stroke-linecap="butt" stroke-linejoin="miter" stroke="rgb(0%, 0%, 0%)" stroke-opacity="1" stroke-miterlimit="10" d="M -5.6695 21.261 L -5.6695 17.007094 " transform="matrix(1, 0, 0, -1, 91.107, 113.136)"/>
<g fill="rgb(0%, 0%, 0%)" fill-opacity="1">
<use xlink:href="#glyph-0-0" x="74.328" y="83.885"/>
</g>
<path fill="none" stroke-width="0.79701" stroke-linecap="butt" stroke-linejoin="miter" stroke="rgb(0%, 0%, 0%)" stroke-opacity="1" stroke-miterlimit="10" d="M -5.6695 17.007094 L -5.6695 -0.00071875 " transform="matrix(1, 0, 0, -1, 91.107, 113.136)"/>
<path fill-rule="nonzero" fill="rgb(0%, 0%, 0%)" fill-opacity="1" d="M 87.421875 113.136719 C 87.421875 112.039062 86.535156 111.152344 85.4375 111.152344 C 84.339844 111.152344 83.453125 112.039062 83.453125 113.136719 C 83.453125 114.230469 84.339844 115.121094 85.4375 115.121094 C 86.535156 115.121094 87.421875 114.230469 87.421875 113.136719 Z M 87.421875 113.136719 "/>
<path fill="none" stroke-width="0.79701" stroke-linecap="butt" stroke-linejoin="miter" stroke="rgb(0%, 0%, 0%)" stroke-opacity="1" stroke-miterlimit="10" d="M -0.00153125 51.022719 L 15.873469 51.022719 M 23.810969 51.022719 L 39.685969 51.022719 " transform="matrix(1, 0, 0, -1, 91.107, 113.136)"/>
<path fill="none" stroke-width="0.79701" stroke-linecap="butt" stroke-linejoin="miter" stroke="rgb(0%, 0%, 0%)" stroke-opacity="1" stroke-miterlimit="10" d="M 15.873469 62.928969 L 15.873469 39.120375 M 23.810969 62.928969 L 23.810969 39.120375 " transform="matrix(1, 0, 0, -1, 91.107, 113.136)"/>
<path fill="none" stroke-width="0.79701" stroke-linecap="butt" stroke-linejoin="miter" stroke="rgb(0%, 0%, 0%)" stroke-opacity="1" stroke-miterlimit="10" d="M 39.685969 51.022719 L 68.033625 51.022719 " transform="matrix(1, 0, 0, -1, 91.107, 113.136)"/>
<path fill-rule="nonzero" fill="rgb(0%, 0%, 0%)" fill-opacity="1" d="M 149.785156 62.113281 C 149.785156 61.015625 148.898438 60.128906 147.800781 60.128906 C 146.703125 60.128906 145.816406 61.015625 145.816406 62.113281 C 145.816406 63.207031 146.703125 64.097656 147.800781 64.097656 C 148.898438 64.097656 149.785156 63.207031 149.785156 62.113281 Z M 149.785156 62.113281 "/>
<path fill="none" stroke-width="0.79701" stroke-linecap="butt" stroke-linejoin="miter" stroke="rgb(0%, 0%, 0%)" stroke-opacity="1" stroke-miterlimit="10" d="M 56.693781 56.694594 L 56.693781 60.944594 " transform="matrix(1, 0, 0, -1, 91.107, 113.136)"/>
<path fill-rule="nonzero" fill="rgb(0%, 0%, 0%)" fill-opacity="1" d="M 149.359375 52.191406 C 149.359375 51.328125 148.660156 50.632812 147.800781 50.632812 C 146.941406 50.632812 146.242188 51.328125 146.242188 52.191406 C 146.242188 53.050781 146.941406 53.75 147.800781 53.75 C 148.660156 53.75 149.359375 53.050781 149.359375 52.191406 Z M 149.359375 52.191406 "/>
<path fill="none" stroke-width="0.79701" stroke-linecap="butt" stroke-linejoin="miter" stroke="rgb(0%, 0%, 0%)" stroke-opacity="1" stroke-miterlimit="10" d="M 56.693781 60.944594 L 70.29925 81.639906 " transform="matrix(1, 0, 0, -1, 91.107, 113.136)"/>
<path fill-rule="nonzero" fill="rgb(0%, 0%, 0%)" fill-opacity="1" d="M 149.359375 32.347656 C 149.359375 31.488281 148.660156 30.789062 147.800781 30.789062 C 146.941406 30.789062 146.242188 31.488281 146.242188 32.347656 C 146.242188 33.207031 146.941406 33.90625 147.800781 33.90625 C 148.660156 33.90625 149.359375 33.207031 149.359375 32.347656 Z M 149.359375 32.347656 "/>
<path fill="none" stroke-width="0.79701" stroke-linecap="butt" stroke-linejoin="miter" stroke="rgb(0%, 0%, 0%)" stroke-opacity="1" stroke-miterlimit="10" d="M 56.693781 80.788344 L 56.693781 85.04225 " transform="matrix(1, 0, 0, -1, 91.107, 113.136)"/>
<path fill="none" stroke-width="0.379" stroke-linecap="butt" stroke-linejoin="miter" stroke="rgb(0%, 0%, 0%)" stroke-opacity="1" stroke-miterlimit="10" d="M 0.00140625 0.0000625 L 3.989688 0.0000625 " transform="matrix(1, 0, 0, -1, 136.69, 39.961)"/>
<g fill="rgb(0%, 0%, 0%)" fill-opacity="1">
<use xlink:href="#glyph-0-0" x="136.69" y="45.147"/>
</g>
<path fill="none" stroke-width="0.79701" stroke-linecap="butt" stroke-linejoin="miter" stroke="rgb(0%, 0%, 0%)" stroke-opacity="1" stroke-miterlimit="10" d="M 56.693781 85.04225 L 56.693781 91.620375 " transform="matrix(1, 0, 0, -1, 91.107, 113.136)"/>
<path fill-rule="nonzero" fill="rgb(0%, 0%, 0%)" fill-opacity="1" stroke-width="0.79701" stroke-linecap="butt" stroke-linejoin="miter" stroke="rgb(0%, 0%, 0%)" stroke-opacity="1" stroke-miterlimit="10" d="M 4.532165 -0.00016125 C 3.977478 0.136558 1.528259 0.921714 0.000915 1.773276 L 0.000915 -1.773599 C 1.528259 -0.922036 3.977478 -0.13688 4.532165 -0.00016125 Z M 4.532165 -0.00016125 " transform="matrix(0, -1, -1, 0, 147.80062, 21.51654)"/>
<g fill="rgb(0%, 0%, 0%)" fill-opacity="1">
<use xlink:href="#glyph-1-0" x="137.917" y="10.128"/>
</g>
<g fill="rgb(0%, 0%, 0%)" fill-opacity="1">
<use xlink:href="#glyph-2-0" x="143.728" y="11.622"/>
</g>
<g fill="rgb(0%, 0%, 0%)" fill-opacity="1">
<use xlink:href="#glyph-2-0" x="150.458414" y="11.622"/>
</g>
<path fill="none" stroke-width="0.79701" stroke-linecap="butt" stroke-linejoin="miter" stroke="rgb(0%, 0%, 0%)" stroke-opacity="1" stroke-miterlimit="10" d="M 68.033625 51.022719 L 72.283625 51.022719 " transform="matrix(1, 0, 0, -1, 91.107, 113.136)"/>
<path fill-rule="nonzero" fill="rgb(0%, 0%, 0%)" fill-opacity="1" d="M 164.949219 62.113281 C 164.949219 61.25 164.25 60.554688 163.390625 60.554688 C 162.53125 60.554688 161.832031 61.25 161.832031 62.113281 C 161.832031 62.972656 162.53125 63.671875 163.390625 63.671875 C 164.25 63.671875 164.949219 62.972656 164.949219 62.113281 Z M 164.949219 62.113281 "/>
<path fill="none" stroke-width="0.79701" stroke-linecap="butt" stroke-linejoin="miter" stroke="rgb(0%, 0%, 0%)" stroke-opacity="1" stroke-miterlimit="10" d="M 72.283625 51.022719 L 92.978938 64.632094 " transform="matrix(1, 0, 0, -1, 91.107, 113.136)"/>
<path fill-rule="nonzero" fill="rgb(0%, 0%, 0%)" fill-opacity="1" d="M 184.792969 62.113281 C 184.792969 61.25 184.09375 60.554688 183.234375 60.554688 C 182.375 60.554688 181.675781 61.25 181.675781 62.113281 C 181.675781 62.972656 182.375 63.671875 183.234375 63.671875 C 184.09375 63.671875 184.792969 62.972656 184.792969 62.113281 Z M 184.792969 62.113281 "/>
<path fill="none" stroke-width="0.79701" stroke-linecap="butt" stroke-linejoin="miter" stroke="rgb(0%, 0%, 0%)" stroke-opacity="1" stroke-miterlimit="10" d="M 92.127375 51.022719 L 96.377375 51.022719 " transform="matrix(1, 0, 0, -1, 91.107, 113.136)"/>
<g fill="rgb(0%, 0%, 0%)" fill-opacity="1">
<use xlink:href="#glyph-0-0" x="171.317" y="73.094"/>
</g>
<path fill="none" stroke-width="0.79701" stroke-linecap="butt" stroke-linejoin="miter" stroke="rgb(0%, 0%, 0%)" stroke-opacity="1" stroke-miterlimit="10" d="M 96.377375 51.022719 L 113.389094 51.022719 " transform="matrix(1, 0, 0, -1, 91.107, 113.136)"/>
<path fill-rule="nonzero" fill="rgb(0%, 0%, 0%)" fill-opacity="1" d="M 197.972656 62.113281 C 197.972656 61.015625 197.085938 60.128906 195.988281 60.128906 C 194.894531 60.128906 194.003906 61.015625 194.003906 62.113281 C 194.003906 63.207031 194.894531 64.097656 195.988281 64.097656 C 197.085938 64.097656 197.972656 63.207031 197.972656 62.113281 Z M 197.972656 62.113281 "/>
<path fill="none" stroke-width="0.79701" stroke-linecap="butt" stroke-linejoin="miter" stroke="rgb(0%, 0%, 0%)" stroke-opacity="1" stroke-miterlimit="10" d="M 113.389094 51.022719 L 117.639094 51.022719 " transform="matrix(1, 0, 0, -1, 91.107, 113.136)"/>
<path fill-rule="nonzero" fill="rgb(0%, 0%, 0%)" fill-opacity="1" d="M 210.304688 62.113281 C 210.304688 61.25 209.605469 60.554688 208.746094 60.554688 C 207.886719 60.554688 207.1875 61.25 207.1875 62.113281 C 207.1875 62.972656 207.886719 63.671875 208.746094 63.671875 C 209.605469 63.671875 210.304688 62.972656 210.304688 62.113281 Z M 210.304688 62.113281 "/>
<path fill="none" stroke-width="0.79701" stroke-linecap="butt" stroke-linejoin="miter" stroke="rgb(0%, 0%, 0%)" stroke-opacity="1" stroke-miterlimit="10" d="M 117.639094 51.022719 L 138.334406 64.632094 " transform="matrix(1, 0, 0, -1, 91.107, 113.136)"/>
<path fill-rule="nonzero" fill="rgb(0%, 0%, 0%)" fill-opacity="1" d="M 230.148438 62.113281 C 230.148438 61.25 229.449219 60.554688 228.589844 60.554688 C 227.726562 60.554688 227.03125 61.25 227.03125 62.113281 C 227.03125 62.972656 227.726562 63.671875 228.589844 63.671875 C 229.449219 63.671875 230.148438 62.972656 230.148438 62.113281 Z M 230.148438 62.113281 "/>
<path fill="none" stroke-width="0.79701" stroke-linecap="butt" stroke-linejoin="miter" stroke="rgb(0%, 0%, 0%)" stroke-opacity="1" stroke-miterlimit="10" d="M 137.482844 51.022719 L 141.732844 51.022719 " transform="matrix(1, 0, 0, -1, 91.107, 113.136)"/>
<path fill="none" stroke-width="0.379" stroke-linecap="butt" stroke-linejoin="miter" stroke="rgb(0%, 0%, 0%)" stroke-opacity="1" stroke-miterlimit="10" d="M 0.000875 0.00021875 L 3.989156 0.00021875 " transform="matrix(1, 0, 0, -1, 216.671, 69.801)"/>
<g fill="rgb(0%, 0%, 0%)" fill-opacity="1">
<use xlink:href="#glyph-0-0" x="216.671" y="74.987"/>
</g>
<path fill="none" stroke-width="0.79701" stroke-linecap="butt" stroke-linejoin="miter" stroke="rgb(0%, 0%, 0%)" stroke-opacity="1" stroke-miterlimit="10" d="M 141.732844 51.022719 L 147.404719 51.022719 " transform="matrix(1, 0, 0, -1, 91.107, 113.136)"/>
<path fill="none" stroke-width="0.79701" stroke-linecap="butt" stroke-linejoin="miter" stroke="rgb(0%, 0%, 0%)" stroke-opacity="1" stroke-miterlimit="10" d="M 147.404719 45.35475 L 147.404719 56.694594 " transform="matrix(1, 0, 0, -1, 91.107, 113.136)"/>
<path fill="none" stroke-width="0.79701" stroke-linecap="butt" stroke-linejoin="miter" stroke="rgb(0%, 0%, 0%)" stroke-opacity="1" stroke-miterlimit="10" d="M 150.23675 47.339125 L 150.23675 54.710219 " transform="matrix(1, 0, 0, -1, 91.107, 113.136)"/>
<path fill="none" stroke-width="0.79701" stroke-linecap="butt" stroke-linejoin="miter" stroke="rgb(0%, 0%, 0%)" stroke-opacity="1" stroke-miterlimit="10" d="M 153.072688 49.3235 L 153.072688 52.725844 " transform="matrix(1, 0, 0, -1, 91.107, 113.136)"/>
<path fill="none" stroke-width="0.79701" stroke-linecap="butt" stroke-linejoin="miter" stroke="rgb(0%, 0%, 0%)" stroke-opacity="1" stroke-miterlimit="10" d="M 82.2055 -0.00071875 L 83.057063 -0.00071875 M 126.709406 -0.00071875 L 127.560969 -0.00071875 " transform="matrix(1, 0, 0, -1, 91.107, 113.136)"/>
<path fill="none" stroke-width="0.79701" stroke-linecap="butt" stroke-linejoin="miter" stroke="rgb(0%, 0%, 0%)" stroke-opacity="1" stroke-miterlimit="10" d="M 127.107844 -0.00071875 L 112.521906 -0.00071875 L 112.521906 13.889906 M 97.244563 13.889906 L 97.244563 -0.00071875 L 82.658625 -0.00071875 " transform="matrix(1, 0, 0, -1, 91.107, 113.136)"/>
<path fill="none" stroke-width="1.59404" stroke-linecap="butt" stroke-linejoin="miter" stroke="rgb(0%, 0%, 0%)" stroke-opacity="1" stroke-miterlimit="10" d="M 115.795344 13.889906 L 93.971125 13.889906 M 112.521906 17.221938 L 97.244563 17.221938 " transform="matrix(1, 0, 0, -1, 91.107, 113.136)"/>
<path fill-rule="nonzero" fill="rgb(0%, 0%, 0%)" fill-opacity="1" d="M 188.351562 104.511719 L 186.367188 104.511719 L 188.351562 108.726562 L 190.335938 104.511719 Z M 188.351562 104.511719 "/>
<g clip-path="url(#clip-0)">
<path fill="none" stroke-width="0.79701" stroke-linecap="butt" stroke-linejoin="miter" stroke="rgb(0%, 0%, 0%)" stroke-opacity="1" stroke-miterlimit="10" d="M 97.244563 8.624281 L 95.260188 8.624281 L 97.244563 4.409438 L 99.228938 8.624281 Z M 97.244563 8.624281 " transform="matrix(1, 0, 0, -1, 91.107, 113.136)"/>
</g>
<path fill="none" stroke-width="0.79701" stroke-linecap="butt" stroke-linejoin="miter" stroke="rgb(0%, 0%, 0%)" stroke-opacity="1" stroke-miterlimit="10" d="M 104.881281 17.221938 L 104.881281 28.178969 " transform="matrix(1, 0, 0, -1, 91.107, 113.136)"/>
<path fill="none" stroke-width="0.79701" stroke-linecap="butt" stroke-linejoin="miter" stroke="rgb(0%, 0%, 0%)" stroke-opacity="1" stroke-miterlimit="10" d="M 104.881281 27.780531 L 104.881281 51.022719 " transform="matrix(1, 0, 0, -1, 91.107, 113.136)"/>
<path fill="none" stroke-width="0.79701" stroke-linecap="butt" stroke-linejoin="miter" stroke="rgb(0%, 0%, 0%)" stroke-opacity="1" stroke-miterlimit="10" d="M -90.708562 -0.00071875 L 82.2055 -0.00071875 " transform="matrix(1, 0, 0, -1, 91.107, 113.136)"/>
<g clip-path="url(#clip-1)">
<path fill="none" stroke-width="0.79701" stroke-linecap="butt" stroke-linejoin="miter" stroke="rgb(0%, 0%, 0%)" stroke-opacity="1" stroke-miterlimit="10" d="M 127.560969 -0.00071875 L 192.760188 -0.00071875 " transform="matrix(1, 0, 0, -1, 91.107, 113.136)"/>
</g>
</svg>
