<?xml version="1.0" encoding="UTF-8"?>
<svg xmlns="http://www.w3.org/2000/svg" xmlns:xlink="http://www.w3.org/1999/xlink" width="20.072pt" height="29.143pt" viewBox="0 0 20.072 29.143">
<defs>
<clipPath id="clip-0">
<path clip-rule="nonzero" d="M 9 12 L 11 12 L 11 29.144531 L 9 29.144531 Z M 9 12 "/>
</clipPath>
<clipPath id="clip-1">
<path clip-rule="nonzero" d="M 0 12 L 20.070312 12 L 20.070312 14 L 0 14 Z M 0 12 "/>
</clipPath>
<clipPath id="clip-2">
<path clip-rule="nonzero" d="M 0 15 L 20.070312 15 L 20.070312 17 L 0 17 Z M 0 15 "/>
</clipPath>
</defs>
<g clip-path="url(#clip-0)">
<path fill="none" stroke-width="0.79701" stroke-linecap="butt" stroke-linejoin="miter" stroke="rgb(0%, 0%, 0%)" stroke-opacity="1" stroke-miterlimit="10" d="M -0.00084375 0.0018125 L -0.00084375 15.872906 " transform="matrix(1, 0, 0, -1, 10.036, 28.744)"/>
</g>
<g clip-path="url(#clip-1)">
<path fill="none" stroke-width="0.79701" stroke-linecap="butt" stroke-linejoin="miter" stroke="rgb(0%, 0%, 0%)" stroke-opacity="1" stroke-miterlimit="10" d="M -9.637562 15.872906 L 9.635875 15.872906 " transform="matrix(1, 0, 0, -1, 10.036, 28.744)"/>
</g>
<g clip-path="url(#clip-2)">
<path fill="none" stroke-width="0.79701" stroke-linecap="butt" stroke-linejoin="miter" stroke="rgb(0%, 0%, 0%)" stroke-opacity="1" stroke-miterlimit="10" d="M -9.637562 12.474469 L 9.635875 12.474469 " transform="matrix(1, 0, 0, -1, 10.036, 28.744)"/>
</g>
<path fill="none" stroke-width="0.79701" stroke-linecap="butt" stroke-linejoin="miter" stroke="rgb(0%, 0%, 0%)" stroke-opacity="1" stroke-miterlimit="10" d="M -0.00084375 12.474469 L -0.00084375 28.345562 " transform="matrix(1, 0, 0, -1, 10.036, 28.744)"/>
</svg>
