<?xml version="1.0" encoding="UTF-8"?>
<svg xmlns="http://www.w3.org/2000/svg" xmlns:xlink="http://www.w3.org/1999/xlink" width="12.135pt" height="29.143pt" viewBox="0 0 12.135 29.143">
<defs>
<clipPath id="clip-0">
<path clip-rule="nonzero" d="M 5 12 L 7 12 L 7 29.144531 L 5 29.144531 Z M 5 12 "/>
</clipPath>
<clipPath id="clip-1">
<path clip-rule="nonzero" d="M 0 12 L 12.136719 12 L 12.136719 14 L 0 14 Z M 0 12 "/>
</clipPath>
<clipPath id="clip-2">
<path clip-rule="nonzero" d="M 0 15 L 12.136719 15 L 12.136719 17 L 0 17 Z M 0 15 "/>
</clipPath>
</defs>
<g clip-path="url(#clip-0)">
<path fill="none" stroke-width="0.79701" stroke-linecap="butt" stroke-linejoin="miter" stroke="rgb(0%, 0%, 0%)" stroke-opacity="1" stroke-miterlimit="10" d="M -0.00159375 0.0018125 L -0.00159375 15.591656 " transform="matrix(1, 0, 0, -1, 6.068, 28.744)"/>
</g>
<g clip-path="url(#clip-1)">
<path fill="none" stroke-width="0.79701" stroke-linecap="butt" stroke-linejoin="miter" stroke="rgb(0%, 0%, 0%)" stroke-opacity="1" stroke-miterlimit="10" d="M -5.669562 15.591656 L 5.670281 15.591656 " transform="matrix(1, 0, 0, -1, 6.068, 28.744)"/>
</g>
<g clip-path="url(#clip-2)">
<path fill="none" stroke-width="0.79701" stroke-linecap="butt" stroke-linejoin="miter" stroke="rgb(0%, 0%, 0%)" stroke-opacity="1" stroke-miterlimit="10" d="M -5.669562 12.755719 L 5.670281 12.755719 " transform="matrix(1, 0, 0, -1, 6.068, 28.744)"/>
</g>
<path fill="none" stroke-width="0.79701" stroke-linecap="butt" stroke-linejoin="miter" stroke="rgb(0%, 0%, 0%)" stroke-opacity="1" stroke-miterlimit="10" d="M -0.00159375 12.755719 L -0.00159375 28.345562 " transform="matrix(1, 0, 0, -1, 6.068, 28.744)"/>
</svg>
