<?xml version="1.0" encoding="UTF-8"?>
<svg xmlns="http://www.w3.org/2000/svg" xmlns:xlink="http://www.w3.org/1999/xlink" width="40.482pt" height="41.279pt" viewBox="0 0 40.482 41.279">
<defs>
<clipPath id="clip-0">
<path clip-rule="nonzero" d="M 0 0 L 40.480469 0 L 40.480469 41.277344 L 0 41.277344 Z M 0 0 "/>
</clipPath>
<clipPath id="clip-1">
<path clip-rule="nonzero" d="M 8 0 L 40.480469 0 L 40.480469 41.277344 L 8 41.277344 Z M 8 0 "/>
</clipPath>
<clipPath id="clip-2">
<path clip-rule="nonzero" d="M 0 20 L 40.480469 20 L 40.480469 22 L 0 22 Z M 0 20 "/>
</clipPath>
</defs>
<g clip-path="url(#clip-0)">
<path fill="none" stroke-width="1.59404" stroke-linecap="butt" stroke-linejoin="miter" stroke="rgb(0%, 0%, 0%)" stroke-opacity="1" stroke-miterlimit="10" d="M 30.754344 -0.000625 L 5.953563 19.843125 L 5.953563 -19.844375 L 30.754344 -0.000625 " transform="matrix(1, 0, 0, -1, 0.398, 20.64)"/>
</g>
<g clip-path="url(#clip-1)">
<path fill="none" stroke-width="1.59404" stroke-linecap="butt" stroke-linejoin="miter" stroke="rgb(0%, 0%, 0%)" stroke-opacity="1" stroke-miterlimit="10" d="M 33.730906 -0.000625 C 33.730906 0.823594 33.066844 1.487656 32.242625 1.487656 C 31.422313 1.487656 30.754344 0.823594 30.754344 -0.000625 C 30.754344 -0.820937 31.422313 -1.488906 32.242625 -1.488906 C 33.066844 -1.488906 33.730906 -0.820937 33.730906 -0.000625 Z M 33.730906 -0.000625 " transform="matrix(1, 0, 0, -1, 0.398, 20.64)"/>
</g>
<g clip-path="url(#clip-2)">
<path fill="none" stroke-width="0.79701" stroke-linecap="butt" stroke-linejoin="miter" stroke="rgb(0%, 0%, 0%)" stroke-opacity="1" stroke-miterlimit="10" d="M 0.0004375 -0.000625 L 5.953563 -0.000625 M 39.684031 -0.000625 L 33.730906 -0.000625 " transform="matrix(1, 0, 0, -1, 0.398, 20.64)"/>
</g>
</svg>
